<svg xmlns="http://www.w3.org/2000/svg" viewBox="0 0 336.48 468.5"><defs><style>.cls-1{fill:#fff;}.cls-2{fill:#a04a2a;}.cls-3{fill:#eaeaea;}</style></defs><g id="Layer_2" data-name="Layer 2"><g id="Layer_1-2" data-name="Layer 1"><path class="cls-1" d="M335.43,296.72l1-1C336.62,296.58,336.29,296.92,335.43,296.72Z"/><path class="cls-2" d="M1.21,155.73c-4.09-33.23,2.13-63.34,19.3-91C50.24,16.82,107-8.2,161.27,2.42c57.31,11.22,101.2,55.2,109.81,112.33,7.74,51.33-8.78,94.56-48.68,128-28.56,23.92-58.07,46.69-86.82,70.38-33.47,27.58-44.75,62.69-34.12,104.78a15,15,0,0,1,.38,2,4.23,4.23,0,0,1-.14,1c-1.69,0-2-1.52-2.57-2.45-22-32.6-27-67.71-14.86-105,9.23-28.41,19.07-56.61,28.53-84.94,10.3-30.79.17-62.14-25.63-79.77S28.86,133.13,4,153.61C3.34,154.07,2.68,154.57,1.21,155.73Z"/><path class="cls-2" d="M241.47,468.38H197.1c-42.29-.08-75.8-29.84-79.82-72.1-3.57-37.55,22.28-73.73,63.24-82.37,58.11-12.26,108.38,40.48,93,97.62-2.1,7.86-4.27,15.71-6.33,23.58-2.11,8.08,1.31,12.86,9.8,13.85,10,1.15,16.09,6,18.66,14.37,1.09,3.59,1,5.25-3.78,5.17C275.13,468.24,258.3,468.39,241.47,468.38Z"/><path class="cls-2" d="M335.36,324.86c-.28,9.32-7.33,17.75-16.54,18.37-10.08.68-20.31,1.39-30.35-.58a38.43,38.43,0,0,1-31-37.62c-.09-7.82,0-15.64,0-23.46,0-8.32,0-16.64,0-25,0-4.87,2-8.37,6.62-10s8.44.11,11.36,3.89c1.83,2.37,3.56,4.81,5.4,7.18a19.75,19.75,0,0,0,15.44,7.89c23.68,1.12,39.14,17.24,39.16,40.82C335.4,312.55,335.56,318.71,335.36,324.86Z"/><path class="cls-2" d="M296.33,355.36a15.56,15.56,0,1,1-15.63,15.49,15.55,15.55,0,0,1,15.63-15.49Z"/><path class="cls-3" d="M315.81,297a7.72,7.72,0,1,1-7.75-8.08,7.86,7.86,0,0,1,7.75,8Z"/></g></g></svg>